<svg width="27" height="52" viewBox="0 0 27 52" fill="none" xmlns="http://www.w3.org/2000/svg">
<path d="M14.5 6.375V0H5.125C4.50156 0 4 0.501562 4 1.125V22.875C4 23.4984 4.50156 24 5.125 24H20.875C21.4984 24 22 23.4984 22 22.875V7.5H15.625C15.0063 7.5 14.5 6.99375 14.5 6.375ZM17.1766 12H18.2969C18.6578 12 18.925 12.3328 18.8453 12.6891L17.0641 20.5641C17.0078 20.8219 16.7781 21 16.5156 21H14.7344C14.4766 21 14.2516 20.8219 14.1906 20.5734C12.9812 15.7219 13.2156 16.7672 12.9906 15.3937H12.9672C12.9156 16.0641 12.8547 16.2094 11.7672 20.5734C11.7062 20.8219 11.4813 21 11.2234 21H9.48438C9.22188 21 8.99219 20.8172 8.93594 20.5594L7.16406 12.6844C7.08437 12.3328 7.35156 12 7.7125 12H8.86094C9.12812 12 9.3625 12.1875 9.41406 12.4547C10.1453 16.1109 10.3562 17.5875 10.3984 18.1828C10.4734 17.7047 10.7406 16.65 11.7766 12.4313C11.8375 12.1781 12.0625 12.0047 12.325 12.0047H13.6891C13.9516 12.0047 14.1766 12.1828 14.2375 12.4359C15.3625 17.1422 15.5875 18.2484 15.625 18.5016C15.6156 17.9766 15.5031 17.6672 16.6375 12.4453C16.6844 12.1828 16.9141 12 17.1766 12ZM22 5.71406V6H16V0H16.2859C16.5859 0 16.8719 0.117188 17.0828 0.328125L21.6719 4.92188C21.8828 5.13281 22 5.41875 22 5.71406Z" fill="#424242"/>
<path d="M3.63574 43.8623L3.82715 45.1748L4.10742 43.9922L6.07617 37.0469H7.18359L9.10449 43.9922L9.37793 45.1953L9.58984 43.8555L11.1348 37.0469H12.4541L10.041 47H8.84473L6.79395 39.7471L6.63672 38.9883L6.47949 39.7471L4.35352 47H3.15723L0.750977 37.0469H2.06348L3.63574 43.8623ZM15.0928 47H13.8281V39.6035H15.0928V47ZM13.7256 37.6416C13.7256 37.4365 13.7871 37.2633 13.9102 37.1221C14.0378 36.9808 14.2246 36.9102 14.4707 36.9102C14.7168 36.9102 14.9036 36.9808 15.0312 37.1221C15.1589 37.2633 15.2227 37.4365 15.2227 37.6416C15.2227 37.8467 15.1589 38.0176 15.0312 38.1543C14.9036 38.291 14.7168 38.3594 14.4707 38.3594C14.2246 38.3594 14.0378 38.291 13.9102 38.1543C13.7871 38.0176 13.7256 37.8467 13.7256 37.6416ZM19.1875 43.5752L18.3945 44.4023V47H17.1299V36.5H18.3945V42.8506L19.0713 42.0371L21.375 39.6035H22.9131L20.0352 42.6934L23.248 47H21.7646L19.1875 43.5752ZM25.5928 47H24.3281V39.6035H25.5928V47ZM24.2256 37.6416C24.2256 37.4365 24.2871 37.2633 24.4102 37.1221C24.5378 36.9808 24.7246 36.9102 24.9707 36.9102C25.2168 36.9102 25.4036 36.9808 25.5312 37.1221C25.6589 37.2633 25.7227 37.4365 25.7227 37.6416C25.7227 37.8467 25.6589 38.0176 25.5312 38.1543C25.4036 38.291 25.2168 38.3594 24.9707 38.3594C24.7246 38.3594 24.5378 38.291 24.4102 38.1543C24.2871 38.0176 24.2256 37.8467 24.2256 37.6416Z" fill="#424242"/>
</svg>
