<svg width="48" height="52" viewBox="0 0 48 52" fill="none" xmlns="http://www.w3.org/2000/svg">
<path d="M14 21.75C14 22.9922 15.0078 24 16.25 24H32.75C33.9922 24 35 22.9922 35 21.75V9H14V21.75ZM29 12.5625C29 12.2531 29.2531 12 29.5625 12H31.4375C31.7469 12 32 12.2531 32 12.5625V14.4375C32 14.7469 31.7469 15 31.4375 15H29.5625C29.2531 15 29 14.7469 29 14.4375V12.5625ZM29 18.5625C29 18.2531 29.2531 18 29.5625 18H31.4375C31.7469 18 32 18.2531 32 18.5625V20.4375C32 20.7469 31.7469 21 31.4375 21H29.5625C29.2531 21 29 20.7469 29 20.4375V18.5625ZM23 12.5625C23 12.2531 23.2531 12 23.5625 12H25.4375C25.7469 12 26 12.2531 26 12.5625V14.4375C26 14.7469 25.7469 15 25.4375 15H23.5625C23.2531 15 23 14.7469 23 14.4375V12.5625ZM23 18.5625C23 18.2531 23.2531 18 23.5625 18H25.4375C25.7469 18 26 18.2531 26 18.5625V20.4375C26 20.7469 25.7469 21 25.4375 21H23.5625C23.2531 21 23 20.7469 23 20.4375V18.5625ZM17 12.5625C17 12.2531 17.2531 12 17.5625 12H19.4375C19.7469 12 20 12.2531 20 12.5625V14.4375C20 14.7469 19.7469 15 19.4375 15H17.5625C17.2531 15 17 14.7469 17 14.4375V12.5625ZM17 18.5625C17 18.2531 17.2531 18 17.5625 18H19.4375C19.7469 18 20 18.2531 20 18.5625V20.4375C20 20.7469 19.7469 21 19.4375 21H17.5625C17.2531 21 17 20.7469 17 20.4375V18.5625ZM32.75 3H30.5V0.75C30.5 0.3375 30.1625 0 29.75 0H28.25C27.8375 0 27.5 0.3375 27.5 0.75V3H21.5V0.75C21.5 0.3375 21.1625 0 20.75 0H19.25C18.8375 0 18.5 0.3375 18.5 0.75V3H16.25C15.0078 3 14 4.00781 14 5.25V7.5H35V5.25C35 4.00781 33.9922 3 32.75 3Z" fill="#424242"/>
<path d="M6.82129 44.4023H2.65137L1.71484 47H0.361328L4.16211 37.0469H5.31055L9.11816 47H7.77148L6.82129 44.4023ZM3.04785 43.3223H6.43164L4.73633 38.667L3.04785 43.3223ZM9.95898 43.2402C9.95898 42.0872 10.2256 41.1712 10.7588 40.4922C11.292 39.8086 11.9984 39.4668 12.8779 39.4668C13.7803 39.4668 14.4844 39.7858 14.9902 40.4238L15.0518 39.6035H16.207V46.8223C16.207 47.7793 15.9222 48.5335 15.3525 49.085C14.7874 49.6364 14.0264 49.9121 13.0693 49.9121C12.5361 49.9121 12.0143 49.7982 11.5039 49.5703C10.9935 49.3424 10.6038 49.0303 10.335 48.6338L10.9912 47.875C11.5335 48.5449 12.1966 48.8799 12.9805 48.8799C13.5957 48.8799 14.0742 48.7067 14.416 48.3604C14.7624 48.014 14.9355 47.5264 14.9355 46.8975V46.2617C14.4297 46.8451 13.7393 47.1367 12.8643 47.1367C11.9984 47.1367 11.2965 46.7881 10.7588 46.0908C10.2256 45.3936 9.95898 44.4434 9.95898 43.2402ZM11.2305 43.3838C11.2305 44.2178 11.4014 44.874 11.7432 45.3525C12.085 45.8265 12.5635 46.0635 13.1787 46.0635C13.9762 46.0635 14.5618 45.7012 14.9355 44.9766V41.5996C14.5482 40.8932 13.9671 40.54 13.1924 40.54C12.5771 40.54 12.0964 40.7793 11.75 41.2578C11.4036 41.7363 11.2305 42.445 11.2305 43.3838ZM21.1904 47.1367C20.1878 47.1367 19.3721 46.8086 18.7432 46.1523C18.1143 45.4915 17.7998 44.6097 17.7998 43.5068V43.2744C17.7998 42.5407 17.9388 41.8867 18.2168 41.3125C18.4993 40.7337 18.8913 40.2826 19.3926 39.959C19.8984 39.6309 20.4453 39.4668 21.0332 39.4668C21.9948 39.4668 22.7422 39.7835 23.2754 40.417C23.8086 41.0505 24.0752 41.9574 24.0752 43.1377V43.6641H19.0645C19.0827 44.3932 19.2946 44.9834 19.7002 45.4346C20.1104 45.8812 20.6299 46.1045 21.2588 46.1045C21.7054 46.1045 22.0837 46.0133 22.3936 45.8311C22.7035 45.6488 22.9746 45.4072 23.207 45.1064L23.9795 45.708C23.3597 46.6605 22.43 47.1367 21.1904 47.1367ZM21.0332 40.5059C20.5228 40.5059 20.0944 40.6927 19.748 41.0664C19.4017 41.4355 19.1875 41.9551 19.1055 42.625H22.8105V42.5293C22.7741 41.8867 22.6009 41.39 22.291 41.0391C21.9811 40.6836 21.5618 40.5059 21.0332 40.5059ZM26.7412 39.6035L26.7822 40.5332C27.3473 39.8223 28.0856 39.4668 28.9971 39.4668C30.5602 39.4668 31.3486 40.3486 31.3623 42.1123V47H30.0977V42.1055C30.0931 41.5723 29.9701 41.1781 29.7285 40.9229C29.4915 40.6676 29.1201 40.54 28.6143 40.54C28.2041 40.54 27.8441 40.6494 27.5342 40.8682C27.2243 41.0869 26.9827 41.374 26.8096 41.7295V47H25.5449V39.6035H26.7412ZM32.9619 43.2402C32.9619 42.1055 33.2308 41.194 33.7686 40.5059C34.3063 39.8132 35.0104 39.4668 35.8809 39.4668C36.7467 39.4668 37.4326 39.763 37.9385 40.3555V36.5H39.2031V47H38.041L37.9795 46.207C37.4736 46.8268 36.7695 47.1367 35.8672 47.1367C35.0104 47.1367 34.3109 46.7858 33.7686 46.084C33.2308 45.3822 32.9619 44.4661 32.9619 43.3359V43.2402ZM34.2266 43.3838C34.2266 44.2223 34.3997 44.8786 34.7461 45.3525C35.0924 45.8265 35.571 46.0635 36.1816 46.0635C36.9837 46.0635 37.5693 45.7035 37.9385 44.9834V41.5859C37.5602 40.8887 36.9792 40.54 36.1953 40.54C35.5755 40.54 35.0924 40.7793 34.7461 41.2578C34.3997 41.7363 34.2266 42.445 34.2266 43.3838ZM45.7383 47C45.6654 46.8542 45.6061 46.5944 45.5605 46.2207C44.9727 46.8314 44.2708 47.1367 43.4551 47.1367C42.7259 47.1367 42.1266 46.9316 41.6572 46.5215C41.1924 46.1068 40.96 45.5827 40.96 44.9492C40.96 44.179 41.2516 43.582 41.835 43.1582C42.4229 42.7298 43.2477 42.5156 44.3096 42.5156H45.54V41.9346C45.54 41.4925 45.4079 41.1416 45.1436 40.8818C44.8792 40.6175 44.4896 40.4854 43.9746 40.4854C43.5234 40.4854 43.1452 40.5993 42.8398 40.8271C42.5345 41.055 42.3818 41.3307 42.3818 41.6543H41.1104C41.1104 41.2852 41.2402 40.9297 41.5 40.5879C41.7643 40.2415 42.1198 39.9681 42.5664 39.7676C43.0176 39.5671 43.512 39.4668 44.0498 39.4668C44.902 39.4668 45.5697 39.681 46.0527 40.1094C46.5358 40.5332 46.7865 41.1188 46.8047 41.8662V45.2705C46.8047 45.9495 46.8913 46.4896 47.0645 46.8906V47H45.7383ZM43.6396 46.0361C44.0361 46.0361 44.4121 45.9336 44.7676 45.7285C45.123 45.5234 45.3805 45.2568 45.54 44.9287V43.4111H44.5488C42.9993 43.4111 42.2246 43.8646 42.2246 44.7715C42.2246 45.168 42.3568 45.4779 42.6211 45.7012C42.8854 45.9245 43.2249 46.0361 43.6396 46.0361Z" fill="#424242"/>
</svg>
