<svg width="51" height="52" viewBox="0 0 51 52" fill="none" xmlns="http://www.w3.org/2000/svg">
<path d="M36 16.875V1.125C36 0.501562 35.4984 0 34.875 0H19.5C17.0156 0 15 2.01562 15 4.5V19.5C15 21.9844 17.0156 24 19.5 24H34.875C35.4984 24 36 23.4984 36 22.875V22.125C36 21.7734 35.8359 21.4547 35.5828 21.2484C35.3859 20.5266 35.3859 18.4688 35.5828 17.7469C35.8359 17.5453 36 17.2266 36 16.875ZM21 6.28125C21 6.12656 21.1266 6 21.2812 6H31.2188C31.3734 6 31.5 6.12656 31.5 6.28125V7.21875C31.5 7.37344 31.3734 7.5 31.2188 7.5H21.2812C21.1266 7.5 21 7.37344 21 7.21875V6.28125ZM21 9.28125C21 9.12656 21.1266 9 21.2812 9H31.2188C31.3734 9 31.5 9.12656 31.5 9.28125V10.2188C31.5 10.3734 31.3734 10.5 31.2188 10.5H21.2812C21.1266 10.5 21 10.3734 21 10.2188V9.28125ZM32.8781 21H19.5C18.6703 21 18 20.3297 18 19.5C18 18.675 18.675 18 19.5 18H32.8781C32.7891 18.8016 32.7891 20.1984 32.8781 21Z" fill="#424242"/>
<path d="M2.57227 45.9268H7.28906V47H1.25293V37.0469H2.57227V45.9268ZM13.1543 47C13.0814 46.8542 13.0221 46.5944 12.9766 46.2207C12.3887 46.8314 11.6868 47.1367 10.8711 47.1367C10.1419 47.1367 9.54264 46.9316 9.07324 46.5215C8.6084 46.1068 8.37598 45.5827 8.37598 44.9492C8.37598 44.179 8.66764 43.582 9.25098 43.1582C9.83887 42.7298 10.6637 42.5156 11.7256 42.5156H12.9561V41.9346C12.9561 41.4925 12.8239 41.1416 12.5596 40.8818C12.2952 40.6175 11.9056 40.4854 11.3906 40.4854C10.9395 40.4854 10.5612 40.5993 10.2559 40.8271C9.95052 41.055 9.79785 41.3307 9.79785 41.6543H8.52637C8.52637 41.2852 8.65625 40.9297 8.91602 40.5879C9.18034 40.2415 9.53581 39.9681 9.98242 39.7676C10.4336 39.5671 10.9281 39.4668 11.4658 39.4668C12.318 39.4668 12.9857 39.681 13.4688 40.1094C13.9518 40.5332 14.2025 41.1188 14.2207 41.8662V45.2705C14.2207 45.9495 14.3073 46.4896 14.4805 46.8906V47H13.1543ZM11.0557 46.0361C11.4521 46.0361 11.8281 45.9336 12.1836 45.7285C12.5391 45.5234 12.7965 45.2568 12.9561 44.9287V43.4111H11.9648C10.4154 43.4111 9.64062 43.8646 9.64062 44.7715C9.64062 45.168 9.77279 45.4779 10.0371 45.7012C10.3014 45.9245 10.641 46.0361 11.0557 46.0361ZM22.4512 43.3838C22.4512 44.5094 22.1937 45.4163 21.6787 46.1045C21.1637 46.7926 20.4665 47.1367 19.5869 47.1367C18.6891 47.1367 17.9827 46.8519 17.4678 46.2822V49.8438H16.2031V39.6035H17.3584L17.4199 40.4238C17.9349 39.7858 18.6504 39.4668 19.5664 39.4668C20.4551 39.4668 21.1569 39.8018 21.6719 40.4717C22.1914 41.1416 22.4512 42.0736 22.4512 43.2676V43.3838ZM21.1865 43.2402C21.1865 42.4062 21.0088 41.7477 20.6533 41.2646C20.2979 40.7816 19.8102 40.54 19.1904 40.54C18.4248 40.54 17.8506 40.8796 17.4678 41.5586V45.0928C17.846 45.7673 18.4248 46.1045 19.2041 46.1045C19.8102 46.1045 20.291 45.8652 20.6465 45.3867C21.0065 44.9036 21.1865 44.1882 21.1865 43.2402ZM23.7295 43.2334C23.7295 42.5088 23.8708 41.8571 24.1533 41.2783C24.4404 40.6995 24.8369 40.2529 25.3428 39.9385C25.8532 39.624 26.4342 39.4668 27.0859 39.4668C28.0931 39.4668 28.9066 39.8154 29.5264 40.5127C30.1507 41.21 30.4629 42.1374 30.4629 43.2949V43.3838C30.4629 44.1038 30.3239 44.751 30.0459 45.3252C29.7725 45.8949 29.3783 46.3392 28.8633 46.6582C28.3529 46.9772 27.765 47.1367 27.0996 47.1367C26.097 47.1367 25.2835 46.7881 24.6592 46.0908C24.0394 45.3936 23.7295 44.4707 23.7295 43.3223V43.2334ZM25.001 43.3838C25.001 44.2041 25.1901 44.8626 25.5684 45.3594C25.9512 45.8561 26.4616 46.1045 27.0996 46.1045C27.7422 46.1045 28.2526 45.8538 28.6309 45.3525C29.0091 44.8467 29.1982 44.1403 29.1982 43.2334C29.1982 42.4222 29.0046 41.766 28.6172 41.2646C28.2344 40.7588 27.724 40.5059 27.0859 40.5059C26.4616 40.5059 25.958 40.7542 25.5752 41.251C25.1924 41.7477 25.001 42.4587 25.001 43.3838ZM35.624 40.7383C35.4326 40.7064 35.2253 40.6904 35.002 40.6904C34.1725 40.6904 33.6097 41.0436 33.3135 41.75V47H32.0488V39.6035H33.2793L33.2998 40.458C33.7145 39.7972 34.3024 39.4668 35.0635 39.4668C35.3096 39.4668 35.4964 39.4987 35.624 39.5625V40.7383ZM41.0859 47C41.013 46.8542 40.9538 46.5944 40.9082 46.2207C40.3203 46.8314 39.6185 47.1367 38.8027 47.1367C38.0736 47.1367 37.4743 46.9316 37.0049 46.5215C36.54 46.1068 36.3076 45.5827 36.3076 44.9492C36.3076 44.179 36.5993 43.582 37.1826 43.1582C37.7705 42.7298 38.5954 42.5156 39.6572 42.5156H40.8877V41.9346C40.8877 41.4925 40.7555 41.1416 40.4912 40.8818C40.2269 40.6175 39.8372 40.4854 39.3223 40.4854C38.8711 40.4854 38.4928 40.5993 38.1875 40.8271C37.8822 41.055 37.7295 41.3307 37.7295 41.6543H36.458C36.458 41.2852 36.5879 40.9297 36.8477 40.5879C37.112 40.2415 37.4674 39.9681 37.9141 39.7676C38.3652 39.5671 38.8597 39.4668 39.3975 39.4668C40.2497 39.4668 40.9173 39.681 41.4004 40.1094C41.8835 40.5332 42.1341 41.1188 42.1523 41.8662V45.2705C42.1523 45.9495 42.2389 46.4896 42.4121 46.8906V47H41.0859ZM38.9873 46.0361C39.3838 46.0361 39.7598 45.9336 40.1152 45.7285C40.4707 45.5234 40.7282 45.2568 40.8877 44.9287V43.4111H39.8965C38.347 43.4111 37.5723 43.8646 37.5723 44.7715C37.5723 45.168 37.7044 45.4779 37.9688 45.7012C38.2331 45.9245 38.5726 46.0361 38.9873 46.0361ZM45.3311 39.6035L45.3721 40.5332C45.9372 39.8223 46.6755 39.4668 47.5869 39.4668C49.1501 39.4668 49.9385 40.3486 49.9521 42.1123V47H48.6875V42.1055C48.6829 41.5723 48.5599 41.1781 48.3184 40.9229C48.0814 40.6676 47.71 40.54 47.2041 40.54C46.7939 40.54 46.4339 40.6494 46.124 40.8682C45.8141 41.0869 45.5726 41.374 45.3994 41.7295V47H44.1348V39.6035H45.3311Z" fill="#424242"/>
</svg>
