<svg width="51" height="52" viewBox="0 0 51 52" fill="none" xmlns="http://www.w3.org/2000/svg">
<path d="M36 16.875V1.125C36 0.501562 35.4984 0 34.875 0H19.5C17.0156 0 15 2.01562 15 4.5V19.5C15 21.9844 17.0156 24 19.5 24H34.875C35.4984 24 36 23.4984 36 22.875V22.125C36 21.7734 35.8359 21.4547 35.5828 21.2484C35.3859 20.5266 35.3859 18.4688 35.5828 17.7469C35.8359 17.5453 36 17.2266 36 16.875ZM21 6.28125C21 6.12656 21.1266 6 21.2812 6H31.2188C31.3734 6 31.5 6.12656 31.5 6.28125V7.21875C31.5 7.37344 31.3734 7.5 31.2188 7.5H21.2812C21.1266 7.5 21 7.37344 21 7.21875V6.28125ZM21 9.28125C21 9.12656 21.1266 9 21.2812 9H31.2188C31.3734 9 31.5 9.12656 31.5 9.28125V10.2188C31.5 10.3734 31.3734 10.5 31.2188 10.5H21.2812C21.1266 10.5 21 10.3734 21 10.2188V9.28125ZM32.8781 21H19.5C18.6703 21 18 20.3297 18 19.5C18 18.675 18.675 18 19.5 18H32.8781C32.7891 18.8016 32.7891 20.1984 32.8781 21Z" fill="#424242"/>
<path d="M1.2666 47V37.0469H4.52051C5.60059 37.0469 6.41178 37.2702 6.9541 37.7168C7.50098 38.1634 7.77441 38.8242 7.77441 39.6992C7.77441 40.1641 7.64225 40.5765 7.37793 40.9365C7.11361 41.292 6.75358 41.5677 6.29785 41.7637C6.83561 41.9141 7.25944 42.2012 7.56934 42.625C7.88379 43.0443 8.04102 43.5456 8.04102 44.1289C8.04102 45.0221 7.75163 45.724 7.17285 46.2344C6.59408 46.7448 5.77604 47 4.71875 47H1.2666ZM2.5791 42.3447V45.9268H4.74609C5.35677 45.9268 5.83757 45.7695 6.18848 45.4551C6.54395 45.1361 6.72168 44.6986 6.72168 44.1426C6.72168 42.944 6.06999 42.3447 4.7666 42.3447H2.5791ZM2.5791 41.292H4.56152C5.13574 41.292 5.59375 41.1484 5.93555 40.8613C6.2819 40.5742 6.45508 40.1846 6.45508 39.6924C6.45508 39.1455 6.29557 38.749 5.97656 38.5029C5.65755 38.2523 5.1722 38.127 4.52051 38.127H2.5791V41.292ZM9.45605 43.2334C9.45605 42.5088 9.59733 41.8571 9.87988 41.2783C10.167 40.6995 10.5635 40.2529 11.0693 39.9385C11.5798 39.624 12.1608 39.4668 12.8125 39.4668C13.8197 39.4668 14.6331 39.8154 15.2529 40.5127C15.8773 41.21 16.1895 42.1374 16.1895 43.2949V43.3838C16.1895 44.1038 16.0505 44.751 15.7725 45.3252C15.499 45.8949 15.1048 46.3392 14.5898 46.6582C14.0794 46.9772 13.4915 47.1367 12.8262 47.1367C11.8236 47.1367 11.0101 46.7881 10.3857 46.0908C9.76595 45.3936 9.45605 44.4707 9.45605 43.3223V43.2334ZM10.7275 43.3838C10.7275 44.2041 10.9167 44.8626 11.2949 45.3594C11.6777 45.8561 12.1882 46.1045 12.8262 46.1045C13.4688 46.1045 13.9792 45.8538 14.3574 45.3525C14.7357 44.8467 14.9248 44.1403 14.9248 43.2334C14.9248 42.4222 14.7311 41.766 14.3438 41.2646C13.9609 40.7588 13.4505 40.5059 12.8125 40.5059C12.1882 40.5059 11.6846 40.7542 11.3018 41.251C10.9189 41.7477 10.7275 42.4587 10.7275 43.3838ZM17.4404 43.2334C17.4404 42.5088 17.5817 41.8571 17.8643 41.2783C18.1514 40.6995 18.5479 40.2529 19.0537 39.9385C19.5641 39.624 20.1452 39.4668 20.7969 39.4668C21.804 39.4668 22.6175 39.8154 23.2373 40.5127C23.8617 41.21 24.1738 42.1374 24.1738 43.2949V43.3838C24.1738 44.1038 24.0348 44.751 23.7568 45.3252C23.4834 45.8949 23.0892 46.3392 22.5742 46.6582C22.0638 46.9772 21.4759 47.1367 20.8105 47.1367C19.8079 47.1367 18.9945 46.7881 18.3701 46.0908C17.7503 45.3936 17.4404 44.4707 17.4404 43.3223V43.2334ZM18.7119 43.3838C18.7119 44.2041 18.901 44.8626 19.2793 45.3594C19.6621 45.8561 20.1725 46.1045 20.8105 46.1045C21.4531 46.1045 21.9635 45.8538 22.3418 45.3525C22.7201 44.8467 22.9092 44.1403 22.9092 43.2334C22.9092 42.4222 22.7155 41.766 22.3281 41.2646C21.9453 40.7588 21.4349 40.5059 20.7969 40.5059C20.1725 40.5059 19.6689 40.7542 19.2861 41.251C18.9033 41.7477 18.7119 42.4587 18.7119 43.3838ZM27.8242 43.5752L27.0312 44.4023V47H25.7666V36.5H27.0312V42.8506L27.708 42.0371L30.0117 39.6035H31.5498L28.6719 42.6934L31.8848 47H30.4014L27.8242 43.5752ZM34.2295 47H32.9648V39.6035H34.2295V47ZM32.8623 37.6416C32.8623 37.4365 32.9238 37.2633 33.0469 37.1221C33.1745 36.9808 33.3613 36.9102 33.6074 36.9102C33.8535 36.9102 34.0404 36.9808 34.168 37.1221C34.2956 37.2633 34.3594 37.4365 34.3594 37.6416C34.3594 37.8467 34.2956 38.0176 34.168 38.1543C34.0404 38.291 33.8535 38.3594 33.6074 38.3594C33.3613 38.3594 33.1745 38.291 33.0469 38.1543C32.9238 38.0176 32.8623 37.8467 32.8623 37.6416ZM37.4561 39.6035L37.4971 40.5332C38.0622 39.8223 38.8005 39.4668 39.7119 39.4668C41.2751 39.4668 42.0635 40.3486 42.0771 42.1123V47H40.8125V42.1055C40.8079 41.5723 40.6849 41.1781 40.4434 40.9229C40.2064 40.6676 39.835 40.54 39.3291 40.54C38.9189 40.54 38.5589 40.6494 38.249 40.8682C37.9391 41.0869 37.6976 41.374 37.5244 41.7295V47H36.2598V39.6035H37.4561ZM43.6836 43.2402C43.6836 42.0872 43.9502 41.1712 44.4834 40.4922C45.0166 39.8086 45.723 39.4668 46.6025 39.4668C47.5049 39.4668 48.209 39.7858 48.7148 40.4238L48.7764 39.6035H49.9316V46.8223C49.9316 47.7793 49.6468 48.5335 49.0771 49.085C48.512 49.6364 47.751 49.9121 46.7939 49.9121C46.2607 49.9121 45.7389 49.7982 45.2285 49.5703C44.7181 49.3424 44.3285 49.0303 44.0596 48.6338L44.7158 47.875C45.2581 48.5449 45.9212 48.8799 46.7051 48.8799C47.3203 48.8799 47.7988 48.7067 48.1406 48.3604C48.487 48.014 48.6602 47.5264 48.6602 46.8975V46.2617C48.1543 46.8451 47.4639 47.1367 46.5889 47.1367C45.723 47.1367 45.0212 46.7881 44.4834 46.0908C43.9502 45.3936 43.6836 44.4434 43.6836 43.2402ZM44.9551 43.3838C44.9551 44.2178 45.126 44.874 45.4678 45.3525C45.8096 45.8265 46.2881 46.0635 46.9033 46.0635C47.7008 46.0635 48.2865 45.7012 48.6602 44.9766V41.5996C48.2728 40.8932 47.6917 40.54 46.917 40.54C46.3018 40.54 45.821 40.7793 45.4746 41.2578C45.1283 41.7363 44.9551 42.445 44.9551 43.3838Z" fill="#424242"/>
</svg>
