<svg width="30" height="52" viewBox="0 0 30 52" fill="none" xmlns="http://www.w3.org/2000/svg">
<path d="M23.25 10.5C19.5187 10.5 16.5 13.5188 16.5 17.25C16.5 20.9813 19.5187 24 23.25 24C26.9813 24 30 20.9813 30 17.25C30 13.5188 26.9813 10.5 23.25 10.5ZM26.25 17.5453C26.25 17.7937 26.0437 18 25.7953 18H22.9547C22.7063 18 22.5 17.7937 22.5 17.5453V13.9547C22.5 13.7063 22.7063 13.5 22.9547 13.5H23.5453C23.7937 13.5 24 13.7063 24 13.9547V16.5H25.7953C26.0437 16.5 26.25 16.7063 26.25 16.9547V17.5453ZM15 17.25C15 15.9469 15.3141 14.7141 15.8531 13.6172C15.4781 13.5469 15.0938 13.5 14.7 13.5H13.9172C12.8766 13.9781 11.7188 14.25 10.5 14.25C9.28125 14.25 8.12813 13.9781 7.08281 13.5H6.3C2.82187 13.5 0 16.3219 0 19.8V21.75C0 22.9922 1.00781 24 2.25 24H18.5203C16.3969 22.5047 15 20.0391 15 17.25ZM10.5 12C13.8141 12 16.5 9.31406 16.5 6C16.5 2.68594 13.8141 0 10.5 0C7.18594 0 4.5 2.68594 4.5 6C4.5 9.31406 7.18594 12 10.5 12Z" fill="#424242"/>
<path d="M4.56348 47H3.25098V37.0469H4.56348V47ZM7.96094 45.9678H12.2881V47H6.41602V46.0703L10.4971 40.6494H6.47754V39.6035H12.083V40.499L7.96094 45.9678ZM15.0908 47H13.8262V39.6035H15.0908V47ZM13.7236 37.6416C13.7236 37.4365 13.7852 37.2633 13.9082 37.1221C14.0358 36.9808 14.2227 36.9102 14.4688 36.9102C14.7148 36.9102 14.9017 36.9808 15.0293 37.1221C15.1569 37.2633 15.2207 37.4365 15.2207 37.6416C15.2207 37.8467 15.1569 38.0176 15.0293 38.1543C14.9017 38.291 14.7148 38.3594 14.4688 38.3594C14.2227 38.3594 14.0358 38.291 13.9082 38.1543C13.7852 38.0176 13.7236 37.8467 13.7236 37.6416ZM18.3174 39.6035L18.3584 40.5332C18.9235 39.8223 19.6618 39.4668 20.5732 39.4668C22.1364 39.4668 22.9248 40.3486 22.9385 42.1123V47H21.6738V42.1055C21.6693 41.5723 21.5462 41.1781 21.3047 40.9229C21.0677 40.6676 20.6963 40.54 20.1904 40.54C19.7803 40.54 19.4202 40.6494 19.1104 40.8682C18.8005 41.0869 18.5589 41.374 18.3857 41.7295V47H17.1211V39.6035H18.3174Z" fill="#424242"/>
</svg>
