<svg width="63" height="52" viewBox="0 0 63 52" fill="none" xmlns="http://www.w3.org/2000/svg">
<path d="M25 12C27.9016 12 30.25 9.65156 30.25 6.75C30.25 3.84844 27.9016 1.5 25 1.5C22.0984 1.5 19.75 3.84844 19.75 6.75C19.75 9.65156 22.0984 12 25 12ZM28.6 13.5H28.2109C27.2359 13.9688 26.1531 14.25 25 14.25C23.8469 14.25 22.7688 13.9688 21.7891 13.5H21.4C18.4187 13.5 16 15.9188 16 18.9V20.25C16 21.4922 17.0078 22.5 18.25 22.5H31.75C32.9922 22.5 34 21.4922 34 20.25V18.9C34 15.9188 31.5812 13.5 28.6 13.5ZM38.5 12C40.9844 12 43 9.98438 43 7.5C43 5.01562 40.9844 3 38.5 3C36.0156 3 34 5.01562 34 7.5C34 9.98438 36.0156 12 38.5 12ZM40.75 13.5H40.5719C39.9203 13.725 39.2313 13.875 38.5 13.875C37.7687 13.875 37.0797 13.725 36.4281 13.5H36.25C35.2938 13.5 34.4125 13.7766 33.6391 14.2219C34.7828 15.4547 35.5 17.0906 35.5 18.9V20.7C35.5 20.8031 35.4766 20.9016 35.4719 21H43.75C44.9922 21 46 19.9922 46 18.75C46 15.8484 43.6516 13.5 40.75 13.5Z" fill="#424242"/>
<path d="M3.95117 42.3721L2.73438 43.6367V47H1.42188V37.0469H2.73438V41.9688L7.15723 37.0469H8.74316L4.82617 41.4424L9.05078 47H7.47852L3.95117 42.3721ZM12.8926 47.1367C11.89 47.1367 11.0742 46.8086 10.4453 46.1523C9.81641 45.4915 9.50195 44.6097 9.50195 43.5068V43.2744C9.50195 42.5407 9.64095 41.8867 9.91895 41.3125C10.2015 40.7337 10.5934 40.2826 11.0947 39.959C11.6006 39.6309 12.1475 39.4668 12.7354 39.4668C13.6969 39.4668 14.4443 39.7835 14.9775 40.417C15.5107 41.0505 15.7773 41.9574 15.7773 43.1377V43.6641H10.7666C10.7848 44.3932 10.9967 44.9834 11.4023 45.4346C11.8125 45.8812 12.332 46.1045 12.9609 46.1045C13.4076 46.1045 13.7858 46.0133 14.0957 45.8311C14.4056 45.6488 14.6768 45.4072 14.9092 45.1064L15.6816 45.708C15.0618 46.6605 14.1322 47.1367 12.8926 47.1367ZM12.7354 40.5059C12.2249 40.5059 11.7965 40.6927 11.4502 41.0664C11.1038 41.4355 10.8896 41.9551 10.8076 42.625H14.5127V42.5293C14.4762 41.8867 14.3031 41.39 13.9932 41.0391C13.6833 40.6836 13.264 40.5059 12.7354 40.5059ZM18.5117 40.499C19.0723 39.8109 19.8014 39.4668 20.6992 39.4668C22.2624 39.4668 23.0508 40.3486 23.0645 42.1123V47H21.7998V42.1055C21.7952 41.5723 21.6722 41.1781 21.4307 40.9229C21.1937 40.6676 20.8223 40.54 20.3164 40.54C19.9062 40.54 19.5462 40.6494 19.2363 40.8682C18.9264 41.0869 18.6849 41.374 18.5117 41.7295V47H17.2471V36.5H18.5117V40.499ZM29.5244 47C29.4515 46.8542 29.3923 46.5944 29.3467 46.2207C28.7588 46.8314 28.057 47.1367 27.2412 47.1367C26.512 47.1367 25.9128 46.9316 25.4434 46.5215C24.9785 46.1068 24.7461 45.5827 24.7461 44.9492C24.7461 44.179 25.0378 43.582 25.6211 43.1582C26.209 42.7298 27.0339 42.5156 28.0957 42.5156H29.3262V41.9346C29.3262 41.4925 29.194 41.1416 28.9297 40.8818C28.6654 40.6175 28.2757 40.4854 27.7607 40.4854C27.3096 40.4854 26.9313 40.5993 26.626 40.8271C26.3206 41.055 26.168 41.3307 26.168 41.6543H24.8965C24.8965 41.2852 25.0264 40.9297 25.2861 40.5879C25.5505 40.2415 25.9059 39.9681 26.3525 39.7676C26.8037 39.5671 27.2982 39.4668 27.8359 39.4668C28.6882 39.4668 29.3558 39.681 29.8389 40.1094C30.3219 40.5332 30.5726 41.1188 30.5908 41.8662V45.2705C30.5908 45.9495 30.6774 46.4896 30.8506 46.8906V47H29.5244ZM27.4258 46.0361C27.8223 46.0361 28.1982 45.9336 28.5537 45.7285C28.9092 45.5234 29.1667 45.2568 29.3262 44.9287V43.4111H28.335C26.7855 43.4111 26.0107 43.8646 26.0107 44.7715C26.0107 45.168 26.1429 45.4779 26.4072 45.7012C26.6715 45.9245 27.0111 46.0361 27.4258 46.0361ZM32.2656 43.2402C32.2656 42.1055 32.5345 41.194 33.0723 40.5059C33.61 39.8132 34.3141 39.4668 35.1846 39.4668C36.0505 39.4668 36.7363 39.763 37.2422 40.3555V36.5H38.5068V47H37.3447L37.2832 46.207C36.7773 46.8268 36.0732 47.1367 35.1709 47.1367C34.3141 47.1367 33.6146 46.7858 33.0723 46.084C32.5345 45.3822 32.2656 44.4661 32.2656 43.3359V43.2402ZM33.5303 43.3838C33.5303 44.2223 33.7035 44.8786 34.0498 45.3525C34.3962 45.8265 34.8747 46.0635 35.4854 46.0635C36.2874 46.0635 36.873 45.7035 37.2422 44.9834V41.5859C36.8639 40.8887 36.2829 40.54 35.499 40.54C34.8792 40.54 34.3962 40.7793 34.0498 41.2578C33.7035 41.7363 33.5303 42.445 33.5303 43.3838ZM41.8496 47H40.585V39.6035H41.8496V47ZM40.4824 37.6416C40.4824 37.4365 40.5439 37.2633 40.667 37.1221C40.7946 36.9808 40.9814 36.9102 41.2275 36.9102C41.4736 36.9102 41.6605 36.9808 41.7881 37.1221C41.9157 37.2633 41.9795 37.4365 41.9795 37.6416C41.9795 37.8467 41.9157 38.0176 41.7881 38.1543C41.6605 38.291 41.4736 38.3594 41.2275 38.3594C40.9814 38.3594 40.7946 38.291 40.667 38.1543C40.5439 38.0176 40.4824 37.8467 40.4824 37.6416ZM47.4551 40.7383C47.2637 40.7064 47.0563 40.6904 46.833 40.6904C46.0036 40.6904 45.4408 41.0436 45.1445 41.75V47H43.8799V39.6035H45.1104L45.1309 40.458C45.5456 39.7972 46.1335 39.4668 46.8945 39.4668C47.1406 39.4668 47.3275 39.4987 47.4551 39.5625V40.7383ZM52.917 47C52.8441 46.8542 52.7848 46.5944 52.7393 46.2207C52.1514 46.8314 51.4495 47.1367 50.6338 47.1367C49.9046 47.1367 49.3053 46.9316 48.8359 46.5215C48.3711 46.1068 48.1387 45.5827 48.1387 44.9492C48.1387 44.179 48.4303 43.582 49.0137 43.1582C49.6016 42.7298 50.4264 42.5156 51.4883 42.5156H52.7188V41.9346C52.7188 41.4925 52.5866 41.1416 52.3223 40.8818C52.0579 40.6175 51.6683 40.4854 51.1533 40.4854C50.7021 40.4854 50.3239 40.5993 50.0186 40.8271C49.7132 41.055 49.5605 41.3307 49.5605 41.6543H48.2891C48.2891 41.2852 48.4189 40.9297 48.6787 40.5879C48.943 40.2415 49.2985 39.9681 49.7451 39.7676C50.1963 39.5671 50.6908 39.4668 51.2285 39.4668C52.0807 39.4668 52.7484 39.681 53.2314 40.1094C53.7145 40.5332 53.9652 41.1188 53.9834 41.8662V45.2705C53.9834 45.9495 54.07 46.4896 54.2432 46.8906V47H52.917ZM50.8184 46.0361C51.2148 46.0361 51.5908 45.9336 51.9463 45.7285C52.3018 45.5234 52.5592 45.2568 52.7188 44.9287V43.4111H51.7275C50.1781 43.4111 49.4033 43.8646 49.4033 44.7715C49.4033 45.168 49.5355 45.4779 49.7998 45.7012C50.0641 45.9245 50.4036 46.0361 50.8184 46.0361ZM57.1621 39.6035L57.2031 40.5332C57.7682 39.8223 58.5065 39.4668 59.418 39.4668C60.9811 39.4668 61.7695 40.3486 61.7832 42.1123V47H60.5186V42.1055C60.514 41.5723 60.391 41.1781 60.1494 40.9229C59.9124 40.6676 59.541 40.54 59.0352 40.54C58.625 40.54 58.265 40.6494 57.9551 40.8682C57.6452 41.0869 57.4036 41.374 57.2305 41.7295V47H55.9658V39.6035H57.1621Z" fill="#424242"/>
</svg>
